<?xml version="1.0" standalone="no"?>
<!DOCTYPE svg PUBLIC "-//W3C//DTD SVG 20010904//EN"
 "http://www.w3.org/TR/2001/REC-SVG-20010904/DTD/svg10.dtd">
<svg version="1.0" xmlns="http://www.w3.org/2000/svg"
 width="200" height="200" viewBox="0 0 1024.000000 1536.000000"
 preserveAspectRatio="xMidYMid meet">

<g transform="translate(0.000000,1536.000000) scale(0.100000,-0.100000)"
fill="#000000" stroke="none">
<path d="M1625 9294 c-143 -15 -350 -76 -479 -141 -263 -132 -506 -380 -627
-637 -96 -206 -133 -380 -132 -631 0 -262 44 -451 154 -665 124 -242 365 -478
615 -603 344 -172 786 -182 1148 -26 417 179 718 547 813 991 23 106 26 148
26 298 1 199 -14 299 -69 469 -68 209 -182 387 -353 554 -202 196 -437 319
-712 372 -84 16 -308 27 -384 19z m341 -209 c222 -39 441 -145 607 -296 177
-159 322 -431 368 -689 20 -111 17 -365 -5 -470 -53 -246 -150 -426 -325 -601
-208 -208 -439 -317 -738 -350 -372 -40 -715 87 -979 363 -205 214 -309 469
-321 788 -8 212 38 454 117 611 169 334 493 577 856 643 107 19 311 20 420 1z"/>
<path d="M1248 8541 l-33 -29 -3 -176 -3 -176 50 0 51 0 0 138 c0 128 2 140
21 158 20 18 45 19 474 22 435 2 453 2 476 -17 l24 -19 3 -326 3 -326 -25 -25
-25 -25 -273 0 c-320 0 -318 0 -318 -81 0 -50 0 -50 22 -35 16 12 47 16 114
16 116 0 137 -13 137 -83 0 -76 -17 -87 -133 -87 -69 0 -102 4 -116 15 -28 21
-30 19 -26 -25 3 -28 12 -46 30 -61 25 -19 37 -20 340 -17 l314 3 29 33 30 33
-3 530 -3 531 -33 29 -32 29 -530 0 -530 0 -32 -29z m1043 -922 c18 -18 21
-30 16 -72 -6 -69 -20 -77 -133 -77 -85 0 -94 2 -108 22 -18 25 -21 100 -6
129 10 17 22 19 110 19 88 0 102 -2 121 -21z"/>
<path d="M2099 7574 c-9 -11 -10 -20 -2 -32 8 -13 26 -17 83 -17 57 0 75 4 83
17 20 31 -8 48 -83 48 -49 0 -71 -4 -81 -16z"/>
<path d="M1393 8430 c-34 -14 -43 -42 -43 -137 0 -127 3 -130 134 -135 94 -3
107 -5 130 -27 24 -22 26 -23 43 -6 68 68 254 64 330 -7 22 -21 32 -68 15 -68
-5 0 -17 9 -28 21 -35 39 -75 53 -154 53 -58 1 -83 -4 -110 -20 -33 -19 -35
-23 -38 -82 l-3 -62 37 25 c81 55 214 39 214 -27 0 -22 -9 -23 -46 -3 -37 19
-84 19 -133 -1 -52 -21 -71 -51 -71 -114 l0 -50 284 0 c283 0 285 0 300 22 14
19 16 65 16 304 0 273 -1 281 -21 300 -20 18 -43 19 -428 21 -223 1 -416 -2
-428 -7z m549 -114 c89 -17 168 -50 168 -70 0 -26 -15 -26 -91 2 -67 24 -87
27 -214 27 -132 0 -144 -2 -208 -29 -69 -28 -94 -26 -82 6 8 20 43 36 130 58
85 23 198 25 297 6z"/>
<path d="M1083 8086 l-28 -24 0 -497 0 -497 33 -29 32 -29 216 0 c128 0 223 4
235 10 48 26 49 36 49 555 l0 486 -26 24 -27 25 -228 0 c-226 0 -228 0 -256
-24z m432 -96 c12 -24 15 -78 15 -310 l0 -281 -25 -24 c-23 -24 -28 -25 -170
-25 -142 0 -147 1 -170 25 l-25 24 0 291 c0 277 1 291 20 310 18 18 33 20 180
20 l159 0 16 -30z m-110 -744 c74 -31 76 -130 4 -155 -67 -23 -170 -7 -189 29
-16 30 -12 85 8 103 41 37 118 47 177 23z"/>
<path d="M1190 7961 c-6 -12 -10 -120 -10 -280 0 -223 2 -262 16 -275 12 -13
40 -16 138 -16 106 0 125 2 139 18 15 16 17 51 17 283 0 193 -3 268 -12 277
-8 8 -55 12 -145 12 -121 0 -133 -2 -143 -19z"/>
<path d="M1272 7198 c-7 -7 -12 -21 -12 -33 0 -12 5 -26 12 -33 18 -18 103
-15 122 4 37 37 5 74 -63 74 -26 0 -52 -5 -59 -12z"/>
<path d="M1723 7578 c-7 -8 -7 -22 -2 -36 8 -21 13 -23 86 -20 l78 3 0 30 0
30 -76 3 c-53 2 -79 -1 -86 -10z"/>
<path d="M3977 8670 c-50 -13 -139 -71 -166 -108 -12 -17 -34 -57 -49 -89 -24
-53 -26 -68 -27 -188 0 -112 3 -138 23 -186 30 -76 90 -142 160 -176 51 -25
67 -28 162 -28 89 0 113 4 157 24 65 29 136 103 171 179 25 53 27 66 27 192 0
125 -2 139 -26 191 -36 76 -90 133 -157 166 -46 23 -71 28 -146 30 -50 1 -108
-2 -129 -7z m160 -141 c46 -17 92 -69 108 -123 18 -59 20 -189 4 -237 -60
-177 -274 -178 -325 -1 -25 86 -16 212 20 279 43 78 119 110 193 82z"/>
<path d="M4580 8291 l0 -381 88 0 87 0 0 119 -1 119 106 4 c89 3 114 7 155 29
101 51 149 160 127 288 -14 83 -51 137 -117 170 -47 25 -58 26 -247 29 l-198
3 0 -380z m340 224 c55 -28 66 -141 19 -191 -29 -31 -81 -46 -139 -42 l-45 3
-2 123 -1 122 69 0 c42 0 81 -6 99 -15z"/>
<path d="M5232 8600 l0 -70 99 0 99 0 0 -310 0 -310 85 0 85 0 0 310 0 310
105 0 105 0 0 70 0 70 -289 0 -289 0 0 -70z"/>
<path d="M5930 8290 l0 -380 85 0 85 0 0 380 0 380 -85 0 -85 0 0 -380z"/>
<path d="M6290 8290 l0 -380 80 0 80 0 1 253 0 252 20 -40 c10 -22 58 -134
107 -250 l87 -210 84 0 84 0 106 249 106 249 3 -252 2 -251 80 0 80 0 0 380 0
381 -107 -3 -107 -3 -120 -278 c-65 -152 -121 -275 -124 -273 -2 3 -57 128
-122 278 l-117 273 -112 3 -111 3 0 -381z"/>
<path d="M7400 8290 l0 -380 85 0 85 0 0 380 0 380 -85 0 -85 0 0 -380z"/>
<path d="M7760 8290 l0 -380 80 0 80 0 2 245 3 245 164 -245 164 -245 94 0 93
0 0 380 0 380 -80 0 -80 0 -2 -247 -3 -248 -165 248 -164 247 -93 0 -93 0 0
-380z"/>
<path d="M8620 8290 l0 -380 235 0 235 0 0 70 0 70 -150 0 -150 0 0 85 0 85
88 2 c48 0 107 1 132 2 l45 1 3 73 3 72 -136 0 -135 0 0 80 0 80 150 0 150 0
0 70 0 70 -235 0 -235 0 0 -380z"/>
<path d="M4528 7679 c-67 -10 -142 -46 -179 -86 -67 -71 -106 -207 -94 -323
15 -138 69 -231 166 -285 51 -28 61 -30 164 -30 123 0 159 12 235 81 133 120
141 404 15 552 -32 39 -105 78 -161 87 -75 12 -89 13 -146 4z m139 -160 c59
-37 78 -88 78 -209 0 -88 -3 -111 -21 -140 -30 -51 -78 -80 -133 -80 -60 0
-104 27 -133 82 -31 60 -33 223 -3 283 40 80 138 110 212 64z"/>
<path d="M3836 7666 c-91 -34 -136 -96 -136 -190 0 -112 43 -166 175 -217 91
-35 115 -55 115 -92 0 -18 -4 -37 -8 -43 -29 -44 -126 -46 -208 -4 -32 16 -60
30 -61 30 -2 0 -3 -34 -3 -76 l0 -75 48 -22 c68 -31 229 -32 287 0 78 42 115
103 115 190 0 109 -54 175 -181 223 -119 45 -147 82 -98 131 36 36 120 22 242
-39 4 -2 7 31 5 75 l-3 78 -40 20 c-52 26 -192 32 -249 11z"/>
<path d="M7427 7666 c-147 -55 -212 -165 -212 -361 1 -100 3 -116 29 -173 56
-121 155 -182 296 -182 154 0 268 77 316 213 22 62 29 185 14 248 -27 113 -79
189 -162 234 -46 26 -65 30 -148 32 -64 2 -107 -1 -133 -11z m211 -164 c46
-46 62 -96 62 -199 0 -128 -49 -200 -142 -210 -58 -7 -110 18 -139 64 -17 27
-23 56 -27 127 -6 116 8 169 58 218 35 35 42 38 94 38 51 0 59 -3 94 -38z"/>
<path d="M8876 7666 c-84 -31 -129 -99 -129 -196 0 -70 15 -110 55 -147 24
-22 144 -83 165 -83 23 0 73 -52 73 -76 0 -77 -117 -99 -226 -44 -32 16 -60
30 -61 30 -2 0 -3 -34 -3 -76 l0 -75 48 -22 c68 -32 229 -32 287 0 84 45 117
101 116 196 0 105 -56 172 -182 218 -80 29 -109 53 -109 89 0 66 104 79 208
27 l52 -26 0 78 0 79 -42 17 c-58 24 -200 30 -252 11z"/>
<path d="M5050 7315 l0 -355 219 0 219 0 4 70 3 70 -137 0 -138 0 0 285 0 285
-85 0 -85 0 0 -355z"/>
<path d="M5590 7417 c0 -284 5 -314 66 -385 48 -56 119 -82 228 -82 142 0 230
48 277 152 23 51 24 64 27 311 l3 257 -85 0 -86 0 0 -235 c0 -183 -3 -243 -14
-270 -34 -80 -146 -99 -209 -36 l-32 31 -3 255 -3 255 -84 0 -85 0 0 -253z"/>
<path d="M6280 7605 l0 -65 90 0 90 0 0 -290 0 -290 85 0 85 0 0 290 0 290 98
0 99 0 0 65 1 65 -274 0 -274 0 0 -65z"/>
<path d="M6920 7315 l0 -355 85 0 85 0 0 355 0 355 -85 0 -85 0 0 -355z"/>
<path d="M8000 7315 l0 -355 75 0 75 0 0 221 c0 121 4 219 8 217 5 -1 74 -100
154 -218 l145 -215 82 -3 81 -3 0 356 0 355 -75 0 -75 0 0 -215 c0 -118 -3
-215 -7 -214 -5 0 -71 96 -149 212 l-140 212 -87 3 -87 3 0 -356z"/>
</g>
</svg>
